HIERARCHY
ROOT Root
{
  OFFSET 0.0 0.0 0.0
  CHANNELS 6 Xposition Yposition Zposition Zrotation Yrotation Xrotation
  JOINT Hips
  {
    OFFSET 0.0 100.0 0.0
    CHANNELS 6 Xposition Yposition Zposition Zrotation Yrotation Xrotation
    JOINT Spine1
    {
      OFFSET -0.013727 5.003763 -0.053727
      CHANNELS 3 Zrotation Yrotation Xrotation
      JOINT Spine2
      {
        OFFSET -0.0 7.125301 -0.029825
        CHANNELS 3 Zrotation Yrotation Xrotation
        JOINT Chest
        {
          OFFSET -1e-06 7.550063 -0.815971
          CHANNELS 3 Zrotation Yrotation Xrotation
          JOINT Neck1
          {
            OFFSET -0.181677 26.311295 -0.553348
            CHANNELS 3 Zrotation Yrotation Xrotation
            JOINT Neck2
            {
              OFFSET -3e-06 7.709397 2.302585
              CHANNELS 3 Zrotation Yrotation Xrotation
              JOINT Head
              {
                OFFSET -5e-06 6.128916 1.953709
                CHANNELS 3 Zrotation Yrotation Xrotation
                JOINT HeadEnd
                {
                  OFFSET 0.003598 16.065403 -1.835379
                  CHANNELS 3 Zrotation Yrotation Xrotation
                }
                JOINT Jaw
                {
                  OFFSET 0.002637 0.475592 3.094941
                  CHANNELS 3 Zrotation Yrotation Xrotation
                }
                JOINT LeftEye
                {
                  OFFSET 3.206381 5.380205 7.586883
                  CHANNELS 3 Zrotation Yrotation Xrotation
                }
                JOINT RightEye
                {
                  OFFSET -3.22244 5.361869 7.558234
                  CHANNELS 3 Zrotation Yrotation Xrotation
                }
              }
            }
          }
          JOINT LeftShoulder
          {
            OFFSET 1.621652 23.237164 5.113413
            CHANNELS 3 Zrotation Yrotation Xrotation
            JOINT LeftArm
            {
              OFFSET 14.919846 2e-06 -5.502326
              CHANNELS 3 Zrotation Yrotation Xrotation
              JOINT LeftForeArm
              {
                OFFSET 28.739307 0.0 -0.002588
                CHANNELS 3 Zrotation Yrotation Xrotation
                JOINT LeftHand
                {
                  OFFSET 27.093981 -1e-06 0.002609
                  CHANNELS 3 Zrotation Yrotation Xrotation
                  JOINT LeftHandThumb1
                  {
                    OFFSET 2.276482 -1.392045 3.191413
                    CHANNELS 3 Zrotation Yrotation Xrotation
                    JOINT LeftHandThumb2
                    {
                      OFFSET 4.012836 -1.828127 1.641654
                      CHANNELS 3 Zrotation Yrotation Xrotation
                      JOINT LeftHandThumb3
                      {
                        OFFSET 2.798515 0.0 -3e-06
                        CHANNELS 3 Zrotation Yrotation Xrotation
                        JOINT LeftHandThumbEnd
                        {
                          OFFSET 3.180793 -4e-06 4e-06
                          CHANNELS 3 Zrotation Yrotation Xrotation
                        }
                      }
                    }
                  }
                  JOINT LeftHandIndex1
                  {
                    OFFSET 3.247555 -0.531998 2.296169
                    CHANNELS 3 Zrotation Yrotation Xrotation
                    JOINT LeftHandIndex2
                    {
                      OFFSET 6.364578 0.01206 0.1786
                      CHANNELS 3 Zrotation Yrotation Xrotation
                      JOINT LeftHandIndex3
                      {
                        OFFSET 3.662364 0.0 0.0
                        CHANNELS 3 Zrotation Yrotation Xrotation
                        JOINT LeftHandIndex4
                        {
                          OFFSET 2.329242 4e-06 4e-06
                          CHANNELS 3 Zrotation Yrotation Xrotation
                          JOINT LeftHandIndexEnd
                          {
                            OFFSET 2.759615 -0.180537 -0.113024
                            CHANNELS 3 Zrotation Yrotation Xrotation
                          }
                        }
                      }
                    }
                  }
                  JOINT LeftHandMiddle1
                  {
                    OFFSET 3.163495 0.240981 1.000332
                    CHANNELS 3 Zrotation Yrotation Xrotation
                    JOINT LeftHandMiddle2
                    {
                      OFFSET 6.19078 -0.259278 -1.002548
                      CHANNELS 3 Zrotation Yrotation Xrotation
                      JOINT LeftHandMiddle3
                      {
                        OFFSET 4.35652 -4e-06 -1e-06
                        CHANNELS 3 Zrotation Yrotation Xrotation
                        JOINT LeftHandMiddle4
                        {
                          OFFSET 2.996877 -8e-06 0.0
                          CHANNELS 3 Zrotation Yrotation Xrotation
                          JOINT LeftHandMiddleEnd
                          {
                            OFFSET 2.304287 -0.294569 -0.031741
                            CHANNELS 3 Zrotation Yrotation Xrotation
                          }
                        }
                      }
                    }
                  }
                  JOINT LeftHandRing1
                  {
                    OFFSET 2.882643 -0.053652 -0.322543
                    CHANNELS 3 Zrotation Yrotation Xrotation
                    JOINT LeftHandRing2
                    {
                      OFFSET 5.854541 -0.486202 -1.373841
                      CHANNELS 3 Zrotation Yrotation Xrotation
                      JOINT LeftHandRing3
                      {
                        OFFSET 4.350578 0.0 3e-06
                        CHANNELS 3 Zrotation Yrotation Xrotation
                        JOINT LeftHandRing4
                        {
                          OFFSET 2.651321 7e-06 2e-06
                          CHANNELS 3 Zrotation Yrotation Xrotation
                          JOINT LeftHandRingEnd
                          {
                            OFFSET 1.936105 0.077687 -7.1e-05
                            CHANNELS 3 Zrotation Yrotation Xrotation
                          }
                        }
                      }
                    }
                  }
                  JOINT LeftHandPinky1
                  {
                    OFFSET 2.8655 -0.310005 -1.600378
                    CHANNELS 3 Zrotation Yrotation Xrotation
                    JOINT LeftHandPinky2
                    {
                      OFFSET 5.087849 -1.331141 -1.77123
                      CHANNELS 3 Zrotation Yrotation Xrotation
                      JOINT LeftHandPinky3
                      {
                        OFFSET 3.070974 4e-06 0.0
                        CHANNELS 3 Zrotation Yrotation Xrotation
                        JOINT LeftHandPinky4
                        {
                          OFFSET 1.549672 0.0 1e-06
                          CHANNELS 3 Zrotation Yrotation Xrotation
                          JOINT LeftHandPinkyEnd
                          {
                            OFFSET 1.944893 -0.157802 0.057219
                            CHANNELS 3 Zrotation Yrotation Xrotation
                          }
                        }
                      }
                    }
                  }
                }
              }
            }
          }
          JOINT RightShoulder
          {
            OFFSET -1.380118 23.180309 5.214158
            CHANNELS 3 Zrotation Yrotation Xrotation
            JOINT RightArm
            {
              OFFSET -15.037196 1.2e-05 -5.545604
              CHANNELS 3 Zrotation Yrotation Xrotation
              JOINT RightForeArm
              {
                OFFSET -28.736639 2e-06 -0.002597
                CHANNELS 3 Zrotation Yrotation Xrotation
                JOINT RightHand
                {
                  OFFSET -27.133619 -0.0 0.002613
                  CHANNELS 3 Zrotation Yrotation Xrotation
                  JOINT RightHandThumb1
                  {
                    OFFSET -2.274032 -1.383988 3.163127
                    CHANNELS 3 Zrotation Yrotation Xrotation
                    JOINT RightHandThumb2
                    {
                      OFFSET -4.011429 -1.827466 1.640914
                      CHANNELS 3 Zrotation Yrotation Xrotation
                      JOINT RightHandThumb3
                      {
                        OFFSET -2.794935 -4e-06 -3e-06
                        CHANNELS 3 Zrotation Yrotation Xrotation
                        JOINT RightHandThumbEnd
                        {
                          OFFSET -3.183852 4e-06 1e-06
                          CHANNELS 3 Zrotation Yrotation Xrotation
                        }
                      }
                    }
                  }
                  JOINT RightHandIndex1
                  {
                    OFFSET -3.253266 -0.520057 2.282866
                    CHANNELS 3 Zrotation Yrotation Xrotation
                    JOINT RightHandIndex2
                    {
                      OFFSET -6.341917 0.012471 0.178266
                      CHANNELS 3 Zrotation Yrotation Xrotation
                      JOINT RightHandIndex3
                      {
                        OFFSET -3.654871 -8e-06 -0.0
                        CHANNELS 3 Zrotation Yrotation Xrotation
                        JOINT RightHandIndex4
                        {
                          OFFSET -2.327586 0.0 1e-06
                          CHANNELS 3 Zrotation Yrotation Xrotation
                          JOINT RightHandIndexEnd
                          {
                            OFFSET -2.76179 -0.180656 -0.113078
                            CHANNELS 3 Zrotation Yrotation Xrotation
                          }
                        }
                      }
                    }
                  }
                  JOINT RightHandMiddle1
                  {
                    OFFSET -3.168106 0.246593 1.00103
                    CHANNELS 3 Zrotation Yrotation Xrotation
                    JOINT RightHandMiddle2
                    {
                      OFFSET -6.180828 -0.258836 -1.000895
                      CHANNELS 3 Zrotation Yrotation Xrotation
                      JOINT RightHandMiddle3
                      {
                        OFFSET -4.348901 0.0 -0.0
                        CHANNELS 3 Zrotation Yrotation Xrotation
                        JOINT RightHandMiddle4
                        {
                          OFFSET -3.00024 -4e-06 -2e-06
                          CHANNELS 3 Zrotation Yrotation Xrotation
                          JOINT RightHandMiddleEnd
                          {
                            OFFSET -2.30252 -0.29437 -0.031706
                            CHANNELS 3 Zrotation Yrotation Xrotation
                          }
                        }
                      }
                    }
                  }
                  JOINT RightHandRing1
                  {
                    OFFSET -2.88569 -0.067952 -0.308858
                    CHANNELS 3 Zrotation Yrotation Xrotation
                    JOINT RightHandRing2
                    {
                      OFFSET -5.854198 -0.48613 -1.373731
                      CHANNELS 3 Zrotation Yrotation Xrotation
                      JOINT RightHandRing3
                      {
                        OFFSET -4.33881 -4e-06 -0.0
                        CHANNELS 3 Zrotation Yrotation Xrotation
                        JOINT RightHandRing4
                        {
                          OFFSET -2.654903 -4e-06 4e-06
                          CHANNELS 3 Zrotation Yrotation Xrotation
                          JOINT RightHandRingEnd
                          {
                            OFFSET -1.933568 0.077527 -5.2e-05
                            CHANNELS 3 Zrotation Yrotation Xrotation
                          }
                        }
                      }
                    }
                  }
                  JOINT RightHandPinky1
                  {
                    OFFSET -2.866425 -0.342796 -1.584145
                    CHANNELS 3 Zrotation Yrotation Xrotation
                    JOINT RightHandPinky2
                    {
                      OFFSET -5.091371 -1.332055 -1.772385
                      CHANNELS 3 Zrotation Yrotation Xrotation
                      JOINT RightHandPinky3
                      {
                        OFFSET -3.062664 -4e-06 1e-06
                        CHANNELS 3 Zrotation Yrotation Xrotation
                        JOINT RightHandPinky4
                        {
                          OFFSET -1.546529 4e-06 -2e-06
                          CHANNELS 3 Zrotation Yrotation Xrotation
                          JOINT RightHandPinkyEnd
                          {
                            OFFSET -1.945119 -0.157718 0.057211
                            CHANNELS 3 Zrotation Yrotation Xrotation
                          }
                        }
                      }
                    }
                  }
                }
              }
            }
          }
        }
      }
    }
    JOINT LeftLeg
    {
      OFFSET 10.043214 -8.434526 2.595655
      CHANNELS 3 Zrotation Yrotation Xrotation
      JOINT LeftShin
      {
        OFFSET -1e-06 -43.221752 -0.802913
        CHANNELS 3 Zrotation Yrotation Xrotation
        JOINT LeftFoot
        {
          OFFSET 1e-06 -42.155094 -3.481523
          CHANNELS 3 Zrotation Yrotation Xrotation
          JOINT LeftToeBase
          {
            OFFSET 0.0 -5.059472 13.231529
            CHANNELS 3 Zrotation Yrotation Xrotation
            JOINT LeftToeEnd
            {
              OFFSET -0.009607 -1.647619 6.513017
              CHANNELS 3 Zrotation Yrotation Xrotation
            }
          }
        }
      }
    }
    JOINT RightLeg
    {
      OFFSET -10.047278 -8.29526 2.620317
      CHANNELS 3 Zrotation Yrotation Xrotation
      JOINT RightShin
      {
        OFFSET 1e-06 -43.362206 -0.805556
        CHANNELS 3 Zrotation Yrotation Xrotation
        JOINT RightFoot
        {
          OFFSET 2e-06 -42.117393 -3.478398
          CHANNELS 3 Zrotation Yrotation Xrotation
          JOINT RightToeBase
          {
            OFFSET -0.0 -5.079609 13.284196
            CHANNELS 3 Zrotation Yrotation Xrotation
            JOINT RightToeEnd
            {
              OFFSET 0.009532 -1.634378 6.460591
              CHANNELS 3 Zrotation Yrotation Xrotation
            }
          }
        }
      }
    }
  }
}
MOTION
Frames: 4
Frame Time: 0.03333333333333333
0.0 0.0 0.0 0.0 -0.0 0.0 1.068397 43.647366 -0.487329 -1.095128 -0.207568 6.077081 -0.358252 -0.272049 3.193681 -0.007813 -1.842547 -3.294021 5.549299 -3.389837 10.636518 9.539109 -8.08791 33.977692 0.997144 0.787181 -3.32383 3.116082 -0.708532 12.919378 7.7e-05 -2.3e-05 5e-06 0.290795 0.01668 -0.129296 1.166152 -3.755361 -10.998374 -0.566217 3.785749 -10.932623 8.29269 -11.967798 6.838218 -53.986862 -41.923615 10.616131 -179.682343 -44.521816 -179.819656 21.162968 -2.943541 -31.708488 -5.882108 9.861288 0.702589 -10.936874 -0.360576 7.156209 1e-06 8.774825 -1e-06 -14.148583 17.385286 7.501323 -1.844033 2.498504 -2.50728 -10.163603 4.678944 4.621111 -20.97603 -3e-06 4e-06 -21.226292 2.451697 -3.594001 -1e-06 -7e-06 0.0 -1.362682 2.240801 -0.746324 -21.334921 0.58491 3.008324 -13.821218 -1e-06 2e-06 -23.887178 -0.249078 -0.839482 -59.607574 2.612543 -0.695398 -0.294024 1.679689 0.833255 -14.218214 0.093214 1.300582 -34.212063 -0.287562 0.967173 -20.033218 0.964538 1.212846 -0.0 0.0 -1e-06 -3.44039 0.788233 0.501656 -15.928192 -3.16731 2.999711 -6.33883 -0.0 3e-06 -18.123453 3.648183 -4.905671 -5e-06 1e-06 -2e-06 0.55965 14.197167 1.467142 59.540459 39.308933 5.820038 179.516006 37.465145 179.43898 -42.054996 15.065738 -23.715639 2.243541 -5.255037 -3.180156 14.282892 -0.826592 6.952505 -4e-06 -12.690607 -1e-06 16.393326 -18.200546 4.014447 1.665666 -1.955921 -2.878297 4.727798 -4.170588 4.993925 11.020526 4e-06 -0.0 12.109052 -3.735715 -2.866783 -0.0 -0.0 0.0 1.291985 -1.928549 -1.49809 14.800131 0.567471 3.865608 14.24257 -1.341734 -6.660657 19.631969 0.143929 -0.648242 50.231026 -1.018079 -5.601674 0.353027 -1.511151 -0.031939 20.222794 3.684313 2.316631 18.787273 7e-06 0.0 10.751628 -0.479866 1.397908 1e-06 -1e-06 1e-06 3.273807 0.305948 -0.580111 21.486818 11.83038 2.266134 8.162928 3e-06 0.0 18.39908 -3.798984 -4.940573 2e-06 -0.0 -0.0 14.694695 26.482 -17.612604 -0.231404 -0.008197 130.482666 -18.496504 -16.803555 -0.621599 2.214452 -1.407891 -26.335018 -1e-06 -0.0 2e-06 -15.743243 -3.326578 -23.757256 0.143526 -0.490862 134.067825 19.378378 21.118153 -20.700285 -2.154285 0.465142 -25.446373 -1e-06 -0.0 -1e-06 
0.0 0.0 0.0 0.0 -0.0 0.0 1.15459 43.612106 -0.429021 -1.179667 0.241038 5.858184 -0.389667 -0.357989 3.243606 0.095952 -1.82702 -3.366465 5.602318 -3.383626 10.578175 9.586835 -7.999853 33.256824 0.934674 0.698232 -3.360056 3.186198 -0.777079 12.586684 7.8e-05 -2.3e-05 4e-06 0.202437 0.041702 -0.149717 1.071943 -3.732061 -10.986612 -0.647893 3.810783 -10.911825 9.276835 -11.740339 6.457882 -55.443523 -45.656624 11.112875 179.33107 -44.553764 -179.394699 20.894402 -3.268613 -32.828709 -5.882108 9.861288 0.70259 -10.936877 -0.360574 7.15621 -0.0 8.774824 -3e-06 -14.083662 17.485704 7.48306 -1.844032 2.498505 -2.507277 -10.163604 4.678944 4.621112 -20.976032 1e-06 8e-06 -21.226295 2.451702 -3.593997 -0.0 -7e-06 -1e-06 -1.362682 2.2408 -0.746324 -21.334925 0.584912 3.00833 -13.821219 -0.0 5e-06 -23.887175 -0.249075 -0.839481 -59.415688 2.617163 -0.743409 -0.294025 1.679688 0.833256 -14.218215 0.093215 1.300585 -34.212059 -0.287553 0.967178 -20.033224 0.964542 1.212846 -0.0 -1e-06 1e-06 -3.44039 0.788234 0.501656 -15.928192 -3.167308 2.999713 -6.338829 0.0 3e-06 -18.123453 3.648186 -4.905669 -4e-06 0.0 -2e-06 0.230895 14.253376 1.478605 59.944889 40.344002 6.245849 179.82634 37.946129 179.341705 -41.345432 14.760785 -22.89538 2.243542 -5.255037 -3.180158 14.282896 -0.826594 6.952507 -2e-06 -12.690607 0.0 16.152243 -18.32366 4.030802 1.665667 -1.955922 -2.878299 4.727801 -4.170588 4.993927 11.020531 2e-06 0.0 12.109056 -3.735717 -2.866784 -0.0 -0.0 0.0 1.291987 -1.92855 -1.49809 14.800136 0.567469 3.865609 14.242579 -1.341737 -6.660659 19.631981 0.143924 -0.648243 49.895222 -1.090881 -5.707918 0.35303 -1.511151 -0.031939 20.222801 3.68431 2.316633 18.787283 3e-06 2e-06 10.751633 -0.479869 1.397907 -0.0 -1e-06 -0.0 3.273807 0.305948 -0.580111 21.486824 11.830379 2.266137 8.162932 1e-06 0.0 18.399092 -3.798987 -4.940573 3e-06 -0.0 -0.0 14.853978 26.315388 -17.461298 -0.303881 -0.050669 130.395004 -18.090738 -16.521811 -0.049695 2.234466 -1.409823 -25.719196 -1e-06 0.0 2e-06 -15.660056 -3.651449 -23.292067 0.13629 -0.423186 133.747299 19.932156 21.281824 -19.286594 -2.111921 0.457711 -26.155645 -2e-06 -0.0 -1e-06 
0.0 0.0 0.0 0.0 -0.0 0.0 1.28086 43.627174 -0.377785 -1.19053 0.63337 5.658448 -0.42277 -0.370218 3.258226 0.147998 -1.797426 -3.406673 5.570393 -3.329752 10.401756 9.579588 -7.932206 32.471146 0.792444 0.632532 -3.397692 3.19418 -0.759961 12.219131 7.8e-05 -2.2e-05 5e-06 0.138462 0.057274 -0.153319 1.019737 -3.727274 -11.006207 -0.722952 3.832469 -10.920831 10.093988 -11.726246 6.103087 -57.091385 -48.880692 11.934805 178.637146 -44.830803 -179.226654 20.70447 -3.838774 -34.070732 -5.882105 9.861284 0.702589 -10.936872 -0.360576 7.156208 0.0 8.774824 -3e-06 -14.228882 17.594324 7.377644 -1.844032 2.498505 -2.507278 -10.1636 4.678946 4.62111 -20.976023 -2e-06 4e-06 -21.226288 2.451698 -3.594 -2e-06 -6e-06 -2e-06 -1.362681 2.240799 -0.746323 -21.334913 0.58491 3.008325 -13.821215 0.0 2e-06 -23.887171 -0.249077 -0.839484 -59.495708 2.54279 -0.778504 -0.294025 1.679689 0.833256 -14.218207 0.093215 1.300581 -34.212051 -0.287561 0.967171 -20.033211 0.96454 1.212843 0.0 -0.0 1e-06 -3.440388 0.788233 0.501657 -15.928185 -3.16731 2.999709 -6.338827 -1e-06 2e-06 -18.123444 3.648185 -4.90567 -4e-06 1e-06 -3e-06 -0.099095 14.369886 1.545277 60.349045 41.236275 6.425817 179.860336 38.369438 179.211273 -40.859367 14.287311 -22.698572 2.243542 -5.255037 -3.180156 14.282892 -0.826595 6.952503 -2e-06 -12.690605 0.0 16.005859 -18.393141 3.975811 1.665666 -1.955922 -2.878299 4.727799 -4.170588 4.993923 11.020526 2e-06 0.0 12.109052 -3.735716 -2.866783 -0.0 0.0 -0.0 1.291986 -1.92855 -1.498089 14.800129 0.567468 3.865606 14.242574 -1.341737 -6.660656 19.631969 0.143927 -0.648246 49.688679 -1.130951 -5.735707 0.353029 -1.511151 -0.031939 20.222795 3.684309 2.316629 18.787273 3e-06 0.0 10.751633 -0.479868 1.397904 -0.0 -2e-06 1e-06 3.273807 0.305947 -0.58011 21.486813 11.830376 2.266131 8.162928 0.0 -1e-06 18.39908 -3.798986 -4.940577 3e-06 -1e-06 -0.0 14.83067 26.149479 -17.356207 -0.344668 -0.040725 130.24733 -17.766356 -16.141235 0.485543 2.246086 -1.40293 -25.630623 -1e-06 -0.0 2e-06 -15.625593 -3.892652 -22.905424 0.18313 -0.327395 133.441254 20.499258 21.432474 -18.179375 -2.072051 0.449438 -26.818945 -2e-06 -0.0 -1e-06 
0.0 0.0 0.0 0.0 -0.0 0.0 1.400127 43.678986 -0.333215 -1.187629 0.957272 5.529208 -0.433656 -0.3452 3.216315 0.148214 -1.7511 -3.444997 5.515164 -3.2857 10.188821 9.529183 -7.830984 31.728951 0.66731 0.637086 -3.405953 3.187388 -0.734709 11.799417 7.8e-05 -2.3e-05 6e-06 0.098269 0.066004 -0.147922 0.990306 -3.72809 -11.022695 -0.773498 3.847276 -10.927917 10.671395 -11.76541 5.780398 -58.531013 -51.345005 12.656564 178.341522 -45.142933 -179.192398 20.672005 -4.29892 -35.394135 -5.88211 9.861292 0.70259 -10.936877 -0.360574 7.156212 -1e-06 8.774831 -2e-06 -14.391477 17.682877 7.285446 -1.844034 2.498508 -2.507279 -10.163605 4.678946 4.621112 -20.976034 0.0 3e-06 -21.226301 2.451699 -3.594003 -1e-06 -7e-06 -0.0 -1.362683 2.240801 -0.746324 -21.334925 0.584913 3.008326 -13.82122 1e-06 3e-06 -23.88718 -0.249077 -0.839484 -59.638248 2.476633 -0.776824 -0.294025 1.679689 0.833256 -14.218216 0.093215 1.300583 -34.21207 -0.287557 0.967173 -20.033226 0.964541 1.212844 0.0 -0.0 2e-06 -3.44039 0.788235 0.501656 -15.928192 -3.16731 2.999711 -6.338831 -1e-06 3e-06 -18.123457 3.648185 -4.905674 -4e-06 1e-06 -1e-06 -0.444437 14.528205 1.594453 60.674053 41.904369 6.362319 179.727585 38.726376 179.10379 -40.474739 13.809123 -23.024521 2.243542 -5.255038 -3.180158 14.282895 -0.826595 6.952507 -2e-06 -12.690607 0.0 15.977469 -18.413952 3.859661 1.665667 -1.955922 -2.878301 4.727799 -4.170588 4.993925 11.020528 3e-06 -0.0 12.109055 -3.735717 -2.866784 0.0 -0.0 1e-06 1.291986 -1.92855 -1.49809 14.800132 0.567468 3.865609 14.242576 -1.341737 -6.660661 19.631973 0.143925 -0.648245 49.619556 -1.143705 -5.74797 0.353029 -1.511151 -0.031941 20.222797 3.68431 2.316632 18.787279 5e-06 0.0 10.751631 -0.479867 1.397905 -1e-06 -2e-06 1e-06 3.273808 0.305947 -0.580113 21.48682 11.830377 2.266136 8.16293 2e-06 -1e-06 18.399088 -3.798985 -4.940577 3e-06 -0.0 -0.0 14.737415 25.960739 -17.315325 -0.354122 -0.00645 130.123535 -17.521673 -15.866992 0.652727 2.246137 -1.397843 -25.833353 1e-06 0.0 2e-06 -15.643464 -4.11102 -22.644285 0.229237 -0.256275 133.170944 21.01186 21.493904 -17.338518 -2.057624 0.441164 -27.158722 -1e-06 -0.0 -1e-06 
